<?xml version="1.0" encoding="utf-8"?>
<!-- Generator: Adobe Illustrator 21.0.2, SVG Export Plug-In . SVG Version: 6.00 Build 0)  -->
<!DOCTYPE svg PUBLIC "-//W3C//DTD SVG 1.1//EN" "http://www.w3.org/Graphics/SVG/1.1/DTD/svg11.dtd">
<svg version="1.1" id="Layer_1" xmlns="http://www.w3.org/2000/svg" xmlns:xlink="http://www.w3.org/1999/xlink" x="0px" y="0px"
	 viewBox="0 0 600 350" style="enable-background:new 0 0 600 350;" xml:space="preserve">
<style type="text/css">
	.st0{fill:none;stroke:#EC1C24;stroke-width:4;stroke-miterlimit:10;}
	.st1{fill:#FFFFFF;}
	.st2{fill:#FFFFFF;stroke:#EC1C24;stroke-width:4;stroke-miterlimit:10;}
	.st3{fill:none;stroke:#EC1C24;stroke-miterlimit:10;}
	.st4{fill:#EC1C24;}
</style>
<path class="st0" d="M952.6,105.6l-66.3,0c-3.4,0-6.1-0.4-6.1-0.9l0.2-16.2l76.1,0l-0.2,16.6C956.4,105.4,954.7,105.6,952.6,105.6z"
	/>
<path class="st1" d="M956.4,88.1c0,9.9-17,18-38,18s-38-8-38-18s17-18,38-18S956.4,78.2,956.4,88.1"/>
<ellipse class="st0" cx="918.4" cy="88.1" rx="38" ry="18"/>
<path class="st2" d="M955.9,194.6c0,8.7-16.9,15.7-37.7,15.7c-20.8,0-37.7-7-37.7-15.7s16.9-15.7,37.7-15.7
	C939,178.9,955.9,186,955.9,194.6"/>
<path class="st1" d="M954.8,192.9c0,1.6-0.7,3-2,4c-5.2,4.1-18.1,12.7-36.3,12c-16.3-0.6-27.7-8.3-32.7-12.3c-1.2-1-1.9-2.4-1.9-3.9
	l0-39.2c0-3.7,3.9-6.2,7.3-4.7c6.6,3.1,16.3,6.2,28.2,6.4c12.7,0.2,23-3.1,29.9-6.2c3.4-1.6,7.4,0.9,7.4,4.6V192.9z"/>
<path class="st1" d="M896.4,197.5"/>
<g id="Layer_1_1_">
	
		<image style="overflow:visible;enable-background:new    ;" width="382" height="459" xlink:href="DA5320C6E771599A.png"  transform="matrix(0.3914 0 0 0.3914 -2270.9932 70)">
	</image>
</g>
<g id="Layer_2">
	
		<image style="overflow:visible;enable-background:new    ;" width="772" height="589" xlink:href="DA5320C6E771599E.png"  transform="matrix(0.3484 0 0 0.3484 -1702.4955 72.0024)">
	</image>
</g>
<g id="Layer_3">
	
		<image style="overflow:visible;enable-background:new    ;" width="823" height="768" xlink:href="DA5320C6E7715999.png"  transform="matrix(0.2338 0 0 0.2338 -1052.8661 68.8434)">
	</image>
</g>
<g id="Layer_4">
	
		<image style="overflow:visible;enable-background:new    ;" width="337" height="363" xlink:href="DA5320C6E771599B.png"  transform="matrix(0.5608 0 0 0.5608 -425.4931 69.087)">
	</image>
</g>
<image style="overflow:visible;enable-background:new    ;" width="1782" height="1185" xlink:href="aboutmeicon.png"  transform="matrix(0.1874 0 0 0.171 120 65)">
</image>
<path class="st0" d="M913.5,230.6l-66.3-0.1c-3.4,0-6.1-2.7-6.1-6.1l0.2-104l76.1,0.1l-0.2,106.4
	C917.2,228.9,915.5,230.6,913.5,230.6z"/>
<path class="st1" d="M917.2,120c0,9.9-17,18-38,18c-21,0-38-8-38-18s17-18,38-18C900.2,102,917.2,110.1,917.2,120"/>
<ellipse class="st0" cx="879.2" cy="120" rx="38" ry="18"/>
<rect x="859" y="109.3" style="fill:none;" width="41.7" height="102.3"/>
<text transform="matrix(-1.346898e-10 1 -1 -1.346898e-10 863.3122 109.2972)" class="st3" style="font-family:'FuturaCE-Medium'; font-size:43.1387px;">C</text>
<path class="st4" d="M913.9,175.3c-3.4,2-16.6,9.4-36.1,9c-17.8-0.3-29.7-6.9-33.4-9v-38.5c4.9,2.3,17.2,7.3,34.3,7.3
	c17.6,0.1,30.2-5.1,35.1-7.3V175.3z"/>
<path class="st2" d="M916.7,226.5c0,8.7-16.9,15.7-37.7,15.7s-37.7-7-37.7-15.7s16.9-15.7,37.7-15.7S916.7,217.8,916.7,226.5"/>
<path class="st1" d="M915.6,224.8c0,1.6-0.7,3-2,4c-5.2,4.1-18.1,12.7-36.3,12c-16.3-0.6-27.7-8.3-32.7-12.3c-1.2-1-1.9-2.4-1.9-3.9
	v-39.2c0-3.7,3.9-6.2,7.3-4.7c6.6,3.1,16.3,6.2,28.2,6.4c12.7,0.2,23-3.1,29.9-6.2c3.4-1.6,7.4,0.9,7.4,4.6V224.8z"/>
<path class="st0" d="M991.6,231.1l-66.3-0.1c-3.4,0-6.1-2.7-6.1-6.1l0.2-104l76.1,0.1l-0.2,106.4
	C995.3,229.5,993.6,231.1,991.6,231.1z"/>
<path class="st1" d="M995.3,120.6c0,9.9-17,18-38,18s-38-8-38-18c0-9.9,17-18,38-18S995.3,110.7,995.3,120.6"/>
<ellipse class="st0" cx="957.3" cy="120.6" rx="38" ry="18"/>
<rect x="937.1" y="109.9" style="fill:none;" width="41.7" height="102.3"/>
<text transform="matrix(-1.346898e-10 1 -1 -1.346898e-10 941.4138 109.8612)" class="st3" style="font-family:'FuturaCE-Medium'; font-size:43.1387px;">C</text>
<path class="st4" d="M992,175.8c-3.4,2-16.6,9.4-36.1,9c-17.8-0.3-29.7-6.9-33.4-9v-38.5c4.9,2.3,17.2,7.3,34.3,7.3
	c17.6,0.1,30.2-5.1,35.1-7.3V175.8z"/>
<path class="st2" d="M994.8,227c0,8.7-16.9,15.7-37.7,15.7s-37.7-7-37.7-15.7s16.9-15.7,37.7-15.7S994.8,218.4,994.8,227"/>
<path class="st1" d="M993.7,225.3c0,1.6-0.7,3-2,4c-5.2,4.1-18.1,12.7-36.3,12c-16.3-0.6-27.7-8.3-32.7-12.3c-1.2-1-1.9-2.4-1.9-3.9
	v-39.2c0-3.7,3.9-6.2,7.3-4.7c6.6,3.1,16.3,6.2,28.2,6.4c12.7,0.2,23-3.1,29.9-6.2c3.4-1.6,7.4,0.9,7.4,4.6V225.3z"/>
<path class="st1" d="M905.8,233.9"/>
</svg>
